<svg viewBox="0 0 500 540" xmlns="http://www.w3.org/2000/svg">
  <!--
    ohm. logo mark — organic resonance symbol
    Color: Vermillion #EB4101
  -->
  <path fill-rule="evenodd" d="
    M 255,12
    C 310,4 380,30 425,80
    C 462,122 478,185 465,245
    C 456,282 440,305 435,335
    C 430,360 440,382 458,398
    C 472,410 478,430 462,448
    C 446,464 424,458 408,442
    C 390,422 378,398 374,372
    C 362,342 360,316 368,288
    C 376,262 390,238 396,210
    C 404,178 400,148 382,122
    C 360,92 330,78 296,82
    C 260,88 232,108 212,138
    C 192,170 180,208 174,250
    C 168,290 162,332 170,372
    C 180,410 172,448 148,476
    C 124,504 90,504 62,486
    C 34,468 18,438 12,400
    C 4,358 8,310 20,262
    C 36,200 68,148 118,106
    C 162,68 208,36 255,12
    Z

    M 248,112
    C 234,132 222,162 218,198
    C 214,238 218,275 228,308
    C 236,332 240,354 232,372
    C 258,358 276,332 282,300
    C 290,265 288,228 280,195
    C 272,162 262,135 256,116
    C 253,108 250,108 248,112
    Z
  " fill="#EB4101"/>
</svg>
